# xmcd
#
# Track frame offsets:
#	150
#	10539
#	22085
#	30653
#	42686
#	55843
#	67383
#	82683
#	98144
#	114839
#	127355
#	144932
#	154514
#
# Disc length: 2233 seconds
# Revision: 0
# Processed by: cddbd v1.5.2PL0 Copyright (c) Steve Scherf et al.
# Submitted via: dBpowerAMP V12.0
#
DISCID=a708b70d
DTITLE=Tommy Brown and the County Line Grass - Leaving This Town
DYEAR=2014
DGENRE=Country
TTITLE0=Fort Worth Jailhouse
TTITLE1=Tonight I've Got Kentucky On My Mind
TTITLE2=Half Moon Bay
TTITLE3=Lonesome Without You
TTITLE4=I'll Never Take No For an Answer
TTITLE5=Leaving This Town Little Darlin'
TTITLE6=You're Gonna Miss Me
TTITLE7=A Dark Road is a Hard Road To Travel
TTITLE8=No One Like You (LA)
TTITLE9=Soon Be There
TTITLE10=Memories of Home
TTITLE11=My Bible Tells Me
TTITLE12=Let Them Know I'm From Virginia
EXTD=
EXTT0=
EXTT1=
EXTT2=
EXTT3=
EXTT4=
EXTT5=
EXTT6=
EXTT7=
EXTT8=
EXTT9=
EXTT10=
EXTT11=
EXTT12=
PLAYORDER=
